<?xml version="1.0" standalone="no"?>
<!DOCTYPE svg PUBLIC "-//W3C//DTD SVG 20010904//EN"
 "http://www.w3.org/TR/2001/REC-SVG-20010904/DTD/svg10.dtd">
<svg version="1.0" xmlns="http://www.w3.org/2000/svg"
 width="1920.000000pt" height="1080.000000pt" viewBox="0 0 1920.000000 1080.000000"
 preserveAspectRatio="xMidYMid meet">

<g transform="translate(0.000000,1080.000000) scale(0.100000,-0.100000)"
fill="#000000" stroke="none">
<path d="M12830 8650 c-167 -14 -390 -59 -505 -103 -290 -110 -530 -311 -735
-616 -112 -168 -238 -469 -281 -676 -6 -27 -15 -70 -21 -95 -26 -121 -47 -292
-57 -475 -8 -159 3 -579 18 -680 33 -215 56 -323 94 -450 61 -199 164 -423
260 -565 207 -306 476 -512 797 -612 198 -61 268 -69 562 -69 141 0 274 4 295
10 21 5 63 14 93 21 218 44 425 139 610 280 84 64 247 230 311 316 102 139
217 355 263 496 31 97 63 207 69 238 2 14 11 59 20 100 33 158 48 295 62 560
12 224 -23 658 -70 858 -44 187 -131 436 -192 550 -60 110 -79 143 -128 217
-170 259 -403 459 -675 579 -210 92 -518 137 -790 116z m237 -851 c250 -60
421 -247 525 -574 74 -231 97 -377 104 -665 9 -330 -22 -605 -96 -840 -88
-280 -276 -488 -493 -546 -62 -17 -270 -19 -318 -3 -57 18 -84 30 -158 71 -37
20 -171 146 -171 160 0 5 -16 31 -36 59 -153 218 -244 694 -215 1124 19 279
39 405 101 630 15 57 26 85 74 189 100 214 235 338 426 391 58 16 197 18 257
4z"/>
<path d="M9038 8468 c-40 -62 -122 -187 -184 -278 -61 -91 -233 -348 -383
-572 -150 -224 -278 -414 -285 -421 -7 -7 -15 -17 -17 -23 -5 -12 -616 -926
-744 -1113 l-85 -123 2 -372 3 -371 995 -5 995 -5 5 -395 5 -395 450 -3 c248
-1 460 0 473 3 l22 5 0 395 0 395 268 2 267 3 0 390 0 390 -265 5 -265 5 -5
1295 -5 1295 -587 3 -588 2 -72 -112z m302 -1709 c0 -616 -3 -779 -12 -780
-113 -5 -1018 -2 -1018 3 0 4 32 54 71 110 39 57 159 236 266 398 107 162 201
304 209 315 52 76 204 307 204 311 0 3 29 47 64 97 66 95 86 128 158 259 24
42 46 74 50 72 5 -3 8 -356 8 -785z"/>
<path d="M16853 8558 c-19 -21 -182 -260 -459 -673 -63 -93 -144 -213 -180
-265 -91 -132 -257 -377 -269 -398 -16 -28 -40 -63 -234 -347 -101 -148 -253
-373 -339 -500 -85 -126 -164 -241 -174 -255 -11 -14 -40 -52 -64 -85 l-44
-60 0 -392 0 -393 1000 0 1000 0 0 -394 c0 -350 2 -395 16 -400 24 -9 897 -7
912 3 10 6 14 89 15 397 l2 389 270 5 270 5 0 390 0 390 -266 3 c-267 2 -267
2 -273 25 -3 12 -6 596 -6 1297 l0 1275 -578 3 -578 2 -21 -22z m237 -1005 c0
-5 2 -354 3 -778 2 -423 2 -776 -1 -782 -3 -10 -119 -13 -533 -13 -291 0 -529
3 -529 6 0 3 17 27 38 53 35 41 752 1111 761 1135 2 5 50 81 107 168 57 87
110 171 119 188 14 27 35 41 35 23z"/>
<path d="M2979 8450 c-31 -9 -73 -30 -94 -46 -44 -35 -150 -173 -175 -229 -37
-85 -40 -98 -40 -165 0 -124 46 -204 150 -266 19 -11 69 -40 110 -64 99 -58
313 -203 370 -250 25 -20 72 -55 105 -78 33 -23 85 -61 115 -85 30 -23 123
-94 205 -157 83 -62 173 -132 201 -154 28 -23 93 -72 144 -111 51 -38 97 -75
104 -80 49 -44 247 -196 273 -209 21 -10 56 -16 100 -16 109 1 177 45 293 189
100 126 123 177 124 271 0 55 -5 87 -21 120 -28 62 -94 133 -167 182 -33 23
-63 44 -66 48 -3 3 -36 28 -75 56 -38 27 -77 54 -85 61 -28 22 -197 147 -355
263 -87 63 -192 140 -234 171 -42 30 -143 104 -226 164 -82 60 -154 113 -160
118 -5 5 -48 35 -95 68 -47 33 -92 65 -100 72 -115 91 -156 115 -225 133 -65
18 -107 16 -176 -6z"/>
<path d="M2735 7558 c-8 -13 -56 -81 -105 -151 -50 -71 -108 -154 -130 -185
-22 -31 -77 -109 -122 -173 -46 -64 -114 -161 -153 -215 -38 -55 -90 -126
-115 -159 -25 -33 -68 -91 -95 -130 -27 -38 -51 -72 -55 -75 -5 -5 -120 -173
-134 -197 -9 -16 10 -31 295 -233 35 -25 109 -79 164 -120 55 -41 121 -88 145
-105 25 -16 101 -71 170 -121 69 -50 160 -115 204 -145 43 -30 99 -69 125 -87
127 -90 222 -152 235 -152 16 0 46 36 127 153 32 45 62 87 66 92 5 6 30 42 58
80 63 90 72 97 97 72 7 -7 47 -39 88 -70 41 -31 113 -85 160 -121 143 -110
376 -281 445 -326 46 -30 65 -49 65 -63 0 -19 -34 -171 -60 -268 -6 -20 -10
-53 -10 -74 0 -42 -7 -42 125 -4 39 11 88 25 110 31 22 5 48 14 57 19 10 5 26
9 36 9 10 0 22 4 28 8 5 5 29 14 54 21 25 7 64 19 88 26 23 8 48 12 56 9 19
-7 59 -165 105 -419 20 -111 48 -197 73 -229 15 -18 109 -95 210 -171 101 -77
274 -207 385 -291 111 -84 242 -185 290 -223 106 -86 165 -116 267 -137 184
-38 358 41 475 216 94 139 122 274 82 393 -41 125 -134 238 -347 417 -16 13
-112 98 -214 188 -102 90 -196 168 -210 174 -31 12 -93 6 -281 -28 -81 -15
-154 -24 -163 -21 -14 6 -16 30 -16 195 0 140 -3 192 -12 200 -17 13 -60 38
-238 135 -269 147 -320 177 -334 199 -8 13 1 39 41 120 67 134 93 194 93 212
0 20 -90 -14 -223 -83 -54 -28 -104 -51 -112 -51 -7 0 -85 49 -172 110 -87 60
-216 149 -288 197 -101 68 -249 172 -284 199 -2 2 16 29 40 60 150 193 190
249 195 274 7 30 21 18 -221 195 -88 64 -203 151 -275 206 -63 49 -253 192
-290 219 -14 10 -100 75 -192 143 -91 69 -192 143 -225 166 -32 23 -78 57
-103 76 -25 19 -48 35 -52 35 -4 0 -14 -10 -23 -22z"/>
<path d="M1438 6110 c-90 -34 -137 -78 -243 -228 -103 -145 -115 -174 -115
-279 0 -147 32 -193 233 -336 45 -32 93 -67 107 -77 38 -28 188 -139 245 -180
28 -21 115 -84 195 -141 163 -116 361 -261 640 -468 132 -98 176 -116 290
-116 102 0 155 17 227 71 52 39 191 222 237 311 27 53 38 161 21 215 -28 96
-55 126 -188 219 -43 30 -134 95 -201 144 -67 50 -151 110 -185 135 -35 25
-82 59 -105 76 -23 16 -93 67 -158 112 -64 45 -154 110 -200 144 -47 35 -135
99 -197 143 -61 44 -151 110 -199 147 -128 99 -193 128 -284 127 -44 -1 -92
-8 -120 -19z"/>
<path d="M16940 3770 c-138 -18 -260 -79 -365 -184 -75 -75 -111 -132 -156
-241 -39 -98 -56 -252 -40 -378 15 -123 22 -147 74 -257 32 -66 57 -101 111
-155 86 -85 105 -99 176 -132 104 -48 203 -67 340 -66 212 1 377 60 497 179
76 76 76 77 77 389 l1 230 -311 3 -312 2 -6 -22 c-9 -36 -7 -222 4 -238 7 -12
35 -15 147 -15 l138 0 3 -82 3 -81 -33 -25 c-52 -39 -104 -51 -218 -51 -94 0
-111 3 -160 28 -140 70 -210 202 -210 394 0 98 15 163 53 238 28 55 128 154
156 154 9 0 22 5 28 11 17 17 189 17 243 0 51 -16 123 -80 147 -129 9 -19 22
-36 30 -39 16 -6 97 19 178 57 33 15 70 31 83 34 28 9 28 13 -3 83 -18 41 -48
79 -104 133 -66 64 -92 82 -157 108 -136 55 -268 71 -414 52z"/>
<path d="M7919 3703 c-12 -27 -28 -66 -36 -88 -8 -22 -19 -49 -23 -60 -5 -11
-16 -40 -24 -65 -31 -95 -140 -393 -166 -455 -4 -11 -13 -36 -20 -55 -7 -19
-16 -44 -20 -55 -5 -11 -34 -90 -65 -175 -31 -85 -60 -164 -65 -175 -5 -11
-19 -49 -31 -85 -12 -36 -25 -69 -30 -75 -5 -5 -9 -15 -9 -22 0 -11 35 -13
177 -11 l176 3 38 109 c20 61 44 115 52 121 10 7 92 10 248 8 208 -2 235 -4
246 -19 7 -10 13 -25 13 -33 0 -9 12 -55 27 -103 l28 -88 173 0 c94 0 172 4
172 9 0 7 -12 41 -50 136 -4 11 -13 36 -20 55 -7 19 -16 44 -20 55 -5 11 -25
65 -45 120 -20 55 -45 124 -55 153 -11 28 -29 78 -41 110 -12 31 -25 66 -29
77 -5 11 -16 40 -24 65 -8 25 -31 88 -51 140 -20 52 -43 115 -51 140 -8 25
-19 53 -24 62 -6 10 -10 25 -10 33 0 8 -4 23 -9 33 -10 18 -14 27 -45 117
l-21 60 -173 3 -173 2 -20 -47z m205 -335 c12 -44 50 -166 56 -183 44 -113 97
-294 87 -297 -7 -2 -82 -3 -167 -3 l-155 0 2 25 c1 20 110 358 144 448 9 24
28 29 33 10z"/>
<path d="M8698 3623 c-2 -71 -1 -136 1 -145 3 -16 22 -18 185 -20 l181 -3 3
-537 2 -538 155 0 155 0 0 540 0 540 180 0 180 0 0 145 0 145 -519 0 -520 0
-3 -127z"/>
<path d="M10155 3698 c-19 -58 -71 -202 -85 -233 -5 -11 -16 -40 -24 -65 -8
-25 -21 -63 -30 -85 -8 -22 -31 -85 -51 -140 -20 -55 -40 -109 -45 -120 -4
-11 -13 -36 -20 -55 -7 -19 -16 -44 -21 -55 -4 -11 -15 -40 -23 -65 -8 -25
-21 -63 -29 -85 -8 -22 -27 -74 -42 -115 -15 -41 -30 -84 -35 -95 -4 -11 -18
-47 -30 -80 -12 -33 -26 -68 -31 -77 -24 -46 -19 -48 154 -48 l164 0 27 73
c34 88 45 115 60 147 l12 25 239 2 c132 2 245 0 250 -5 6 -4 26 -52 44 -107
19 -55 38 -108 43 -117 8 -16 27 -18 173 -18 91 0 165 4 165 9 0 16 -52 170
-80 236 -16 36 -80 214 -80 220 0 8 -81 222 -108 285 -15 36 -73 191 -82 220
-5 14 -23 63 -40 110 -17 47 -35 96 -40 110 -4 14 -22 60 -40 103 l-32 77
-173 0 -173 0 -17 -52z m223 -343 c4 -34 25 -99 34 -109 4 -6 8 -17 8 -25 0
-8 23 -84 50 -169 28 -85 48 -157 45 -160 -9 -9 -326 -8 -332 1 -5 8 13 64 37
122 5 11 23 65 41 120 17 55 40 123 50 150 10 28 21 60 24 73 8 28 38 26 43
-3z"/>
<path d="M11180 3065 l0 -685 435 0 436 0 -3 138 -3 137 -272 3 -273 2 0 545
0 545 -160 0 -160 0 0 -685z"/>
<path d="M13117 3743 c-4 -3 -7 -214 -7 -467 0 -442 -1 -463 -21 -506 -25 -56
-44 -77 -91 -101 -76 -39 -194 -19 -284 48 -17 13 -36 23 -41 23 -6 0 -21 -19
-33 -42 -28 -56 -103 -172 -112 -176 -5 -2 -8 -9 -8 -16 0 -14 149 -106 172
-106 8 0 18 -4 24 -9 19 -17 142 -36 234 -36 155 1 247 34 343 124 31 30 69
78 83 107 53 108 54 120 54 662 l0 502 -153 0 c-85 0 -157 -3 -160 -7z"/>
<path d="M13682 3253 l4 -498 33 -85 c29 -73 44 -95 105 -155 115 -114 228
-156 426 -158 288 -3 476 123 547 366 13 43 16 138 20 523 2 259 1 478 -3 487
-5 15 -26 17 -160 17 l-154 0 0 -448 c0 -508 -1 -513 -74 -586 -48 -48 -100
-66 -188 -66 -82 1 -141 30 -190 95 -27 36 -39 63 -43 100 -4 27 -7 241 -8
475 l-2 425 -158 3 -159 3 4 -498z"/>
<path d="M15050 3066 l0 -686 325 0 c402 0 449 8 590 96 126 80 213 204 256
369 28 108 31 330 5 425 -33 123 -91 227 -170 304 -81 80 -149 120 -251 150
-63 18 -105 20 -412 24 l-343 3 0 -685z m625 379 c72 -18 116 -46 158 -98 70
-87 87 -142 87 -283 0 -150 -34 -242 -117 -315 -71 -61 -130 -80 -286 -86 -93
-4 -141 -3 -145 4 -4 6 -6 187 -4 402 l2 391 125 0 c77 0 145 -6 180 -15z"/>
<path d="M17875 3738 c-3 -7 -4 -314 -3 -683 l3 -670 450 0 450 0 1 125 c1 74
-3 130 -9 138 -8 10 -71 13 -290 11 -241 -1 -281 1 -288 14 -5 8 -6 69 -2 136
l6 121 256 2 256 3 3 132 3 133 -263 2 -263 3 -3 119 c-1 66 2 124 7 129 5 5
131 10 290 11 172 0 283 5 289 11 4 6 6 70 4 143 l-4 132 -444 0 c-347 0 -446
-3 -449 -12z"/>
<path d="M938 3595 c-162 -60 -248 -223 -236 -445 6 -103 9 -100 -90 -100
-141 0 -253 -77 -302 -206 -18 -48 -21 -73 -18 -134 10 -158 107 -273 268
-317 62 -17 3895 -19 3937 -2 105 42 170 95 210 169 78 143 37 328 -95 432
-32 25 -139 58 -189 58 -77 0 -85 9 -77 96 12 133 -30 267 -110 346 -42 42
-55 50 -126 81 -85 37 -90 37 -1625 36 -1254 0 -1516 -3 -1547 -14z"/>
</g>
</svg>
