<?xml version="1.0" standalone="no"?>
<!DOCTYPE svg PUBLIC "-//W3C//DTD SVG 20010904//EN"
 "http://www.w3.org/TR/2001/REC-SVG-20010904/DTD/svg10.dtd">
<svg version="1.0" xmlns="http://www.w3.org/2000/svg"
 width="821.000000pt" height="304.000000pt" viewBox="0 0 821.000000 304.000000"
 preserveAspectRatio="xMidYMid meet">

<g transform="translate(0.000000,304.000000) scale(0.100000,-0.100000)"
fill="currentColor" stroke="none">
<path d="M6730 1852 c-248 -65 -386 -320 -325 -605 30 -141 123 -259 252 -320
59 -27 81 -32 169 -35 155 -6 258 31 343 123 75 82 111 183 111 315 l0 70
-210 0 -210 0 0 -75 0 -75 110 0 c119 0 121 -1 99 -57 -15 -40 -77 -101 -117
-114 -55 -18 -154 -13 -198 9 -53 27 -99 77 -126 137 -31 69 -32 227 -1 295
40 89 113 147 205 164 79 14 171 -32 208 -105 l21 -40 102 3 102 3 -2 37 c-5
81 -88 189 -180 237 -100 51 -236 63 -353 33z"/>
<path d="M501 1846 c-6 -7 -39 -91 -75 -187 -36 -95 -78 -208 -94 -249 -54
-138 -182 -481 -182 -486 0 -2 50 -3 112 -2 l112 3 31 90 32 90 181 3 180 2
20 -52 c11 -29 25 -72 32 -95 l13 -43 114 0 c62 0 113 4 113 8 0 4 -32 93 -70
197 -39 105 -91 244 -115 310 -24 66 -70 188 -102 270 l-58 150 -117 1 c-80 1
-121 -2 -127 -10z m183 -387 c31 -91 56 -168 56 -172 0 -10 -228 -9 -234 1 -2
4 20 79 50 166 53 156 63 180 69 174 2 -2 28 -78 59 -169z"/>
<path d="M1027 1854 c-4 -4 -7 -45 -7 -91 l0 -83 140 0 c105 0 140 -3 141 -12
0 -7 1 -178 1 -380 l0 -368 109 0 109 0 0 380 0 380 140 0 141 0 -3 88 -3 87
-381 3 c-209 1 -383 -1 -387 -4z"/>
<path d="M2097 1847 c-8 -7 -46 -97 -85 -202 -39 -104 -101 -269 -137 -365
-37 -96 -82 -217 -101 -268 l-33 -93 111 3 112 3 32 90 32 90 183 0 183 0 32
-90 32 -90 116 -3 116 -3 -15 38 c-8 21 -69 182 -135 358 -66 176 -140 370
-163 430 l-43 110 -111 2 c-73 1 -116 -3 -126 -10z m233 -559 c0 -10 -227 -10
-233 0 -3 4 23 85 56 181 l61 175 58 -175 c32 -95 58 -177 58 -181z"/>
<path d="M2810 1390 l0 -470 320 0 320 0 0 90 0 90 -212 2 -213 3 -3 378 -2
377 -105 0 -105 0 0 -470z"/>
<path d="M4080 1505 c0 -367 -4 -400 -48 -424 -12 -6 -41 -11 -67 -11 -59 0
-91 29 -100 94 l-7 46 -101 0 -100 0 6 -57 c11 -100 26 -135 76 -184 62 -60
119 -79 233 -79 157 0 261 70 298 201 5 18 10 195 10 393 l1 361 -100 3 -101
3 0 -346z"/>
<path d="M4464 1836 c-3 -8 -4 -167 -2 -353 4 -288 7 -345 21 -384 34 -89 106
-152 215 -190 80 -28 270 -27 346 1 103 39 182 119 206 210 5 19 10 190 12
380 l3 345 -100 0 -100 0 3 -290 c4 -368 -3 -411 -82 -469 -23 -18 -42 -21
-119 -21 -106 0 -147 17 -182 75 -19 33 -20 51 -20 370 l0 335 -98 3 c-78 2
-98 0 -103 -12z"/>
<path d="M5450 1376 l0 -476 205 0 c112 0 228 5 257 11 199 42 332 186 359
389 27 200 -53 392 -198 477 -96 56 -150 65 -395 71 l-228 4 0 -476z m396 283
c116 -21 180 -82 210 -201 28 -107 5 -221 -58 -293 -55 -63 -107 -80 -243 -80
l-110 0 -3 280 c-1 154 0 285 3 292 6 16 118 17 201 2z"/>
<path d="M7447 1843 c-4 -3 -7 -217 -7 -475 l0 -468 311 0 c280 0 311 2 305
16 -3 9 -6 49 -6 90 l0 74 -210 0 -211 0 3 98 3 97 185 5 185 5 3 83 3 82
-186 0 -185 0 0 110 0 110 204 0 203 0 7 80 c4 44 5 84 1 90 -7 11 -597 15
-608 3z"/>
</g>
</svg>
