<?xml version="1.0" standalone="no"?>
<!DOCTYPE svg PUBLIC "-//W3C//DTD SVG 20010904//EN"
 "http://www.w3.org/TR/2001/REC-SVG-20010904/DTD/svg10.dtd">
<svg version="1.0" xmlns="http://www.w3.org/2000/svg"
 width="666.000000pt" height="375.000000pt" viewBox="0 0 666.000000 375.000000"
 preserveAspectRatio="xMidYMid meet">

<g transform="translate(0.000000,375.000000) scale(0.100000,-0.100000)"
fill="currentColor" stroke="none">
<path d="M1267 2914 c-60 -40 -97 -99 -97 -153 l0 -45 258 -259 c141 -142 269
-265 284 -273 15 -8 43 -14 63 -14 32 0 47 9 106 66 75 73 91 111 69 163 -6
16 -71 85 -143 153 -268 252 -393 365 -414 376 -36 19 -86 14 -126 -14z"/>
<path d="M3016 2802 c-3 -5 -66 -171 -141 -368 -74 -198 -140 -370 -146 -384
-19 -43 -79 -212 -79 -221 0 -5 51 -9 114 -9 l114 0 35 98 35 97 192 0 193 0
32 -95 32 -95 122 -3 c114 -2 122 -1 117 15 -3 10 -86 232 -184 493 l-179 475
-126 3 c-69 1 -128 -1 -131 -6z m193 -414 c32 -97 57 -179 53 -182 -3 -3 -59
-6 -124 -6 -89 0 -118 3 -118 13 0 15 105 330 115 347 4 6 9 10 11 8 2 -2 30
-83 63 -180z"/>
<path d="M3560 2715 l0 -95 150 0 150 0 0 -400 0 -400 115 0 115 0 0 400 0
400 145 0 145 0 0 95 0 95 -410 0 -410 0 0 -95z"/>
<path d="M4675 2768 c-9 -24 -75 -196 -145 -383 -70 -187 -147 -388 -169 -448
-23 -59 -41 -110 -41 -112 0 -3 52 -4 116 -3 l116 3 35 98 35 97 193 0 193 0
33 -100 33 -100 118 0 c78 0 118 4 118 11 0 9 -40 118 -235 629 -35 91 -78
207 -96 257 l-34 93 -126 0 -127 0 -17 -42z m204 -372 c33 -99 58 -183 55
-188 -6 -10 -244 -11 -244 0 0 12 122 373 126 370 1 -2 30 -84 63 -182z"/>
<path d="M5440 2315 l0 -495 340 0 340 0 0 95 0 95 -225 0 -225 0 0 400 0 400
-115 0 -115 0 0 -495z"/>
<path d="M957 2392 l-207 -207 214 -214 c117 -117 218 -212 224 -210 18 7 422
391 422 402 0 10 -430 436 -440 437 -3 0 -99 -93 -213 -208z"/>
<path d="M473 2107 c-62 -63 -73 -78 -73 -108 0 -19 7 -46 17 -59 28 -42 506
-521 535 -536 60 -31 107 -13 186 69 43 46 52 62 52 92 0 20 -6 48 -14 63 -22
41 -517 529 -549 541 -58 22 -77 15 -154 -62z"/>
<path d="M1447 1902 l-88 -88 248 -265 c136 -145 297 -315 358 -376 l110 -113
53 0 c49 0 56 3 103 47 58 55 79 89 79 133 0 49 -23 81 -112 161 -45 41 -139
126 -208 189 -310 284 -441 400 -448 400 -4 0 -47 -40 -95 -88z"/>
<path d="M5054 1561 c-58 -15 -128 -55 -171 -97 -149 -149 -149 -436 0 -585
85 -86 204 -122 328 -101 84 15 131 37 182 89 66 65 90 124 95 231 l4 92 -171
0 -171 0 0 -60 0 -60 90 0 c87 0 90 -1 90 -23 0 -31 -43 -88 -83 -109 -45 -24
-137 -23 -186 2 -114 58 -154 227 -87 364 36 74 88 109 170 114 52 3 66 0 96
-20 19 -13 44 -38 55 -55 20 -32 20 -32 108 -33 l87 0 -6 28 c-20 88 -73 151
-167 199 -42 21 -68 27 -142 29 -49 2 -104 0 -121 -5z"/>
<path d="M2888 1254 l-3 -296 -24 -19 c-31 -26 -95 -25 -121 1 -11 11 -23 38
-26 60 l-7 41 -76 -3 -76 -3 -3 -32 c-9 -96 69 -199 168 -223 138 -33 292 34
320 140 5 19 10 169 12 333 l3 297 -82 0 -82 0 -3 -296z"/>
<path d="M3202 1263 c3 -278 4 -290 26 -335 30 -60 90 -112 156 -135 76 -27
245 -25 306 3 66 31 110 72 136 129 23 49 24 57 24 338 l0 287 -80 0 -80 0 0
-265 c0 -293 -4 -315 -64 -351 -42 -26 -160 -27 -199 -1 -61 40 -61 44 -58
343 l2 274 -86 0 -87 0 4 -287z"/>
<path d="M4000 1166 l0 -386 153 0 c83 0 179 4 211 10 126 20 226 95 280 210
27 59 30 75 31 165 0 80 -4 112 -23 160 -32 85 -86 145 -169 186 l-68 34 -207
3 -208 4 0 -386z m392 216 c89 -44 135 -162 109 -283 -25 -117 -105 -169 -263
-169 l-78 0 0 233 c0 129 3 237 8 241 4 5 45 6 92 4 62 -3 98 -10 132 -26z"/>
<path d="M5630 1165 l0 -385 243 0 c134 0 246 2 248 4 2 2 3 36 1 75 l-4 71
-169 0 -169 0 0 80 0 80 149 0 149 0 6 31 c3 17 6 49 6 70 l0 39 -150 0 -150
0 0 90 0 90 164 0 163 0 7 38 c3 20 6 52 6 70 l0 32 -250 0 -250 0 0 -385z"/>
<path d="M516 1134 c-12 -11 -16 -36 -16 -90 l0 -74 -44 0 c-63 0 -76 -22 -76
-123 0 -130 -67 -117 585 -117 653 0 585 -14 585 123 0 99 -12 117 -78 117
l-42 0 0 74 c0 54 -4 79 -16 90 -14 14 -68 16 -449 16 -381 0 -435 -2 -449
-16z"/>
</g>
</svg>
