<?xml version="1.0" standalone="no"?>
<!DOCTYPE svg PUBLIC "-//W3C//DTD SVG 20010904//EN"
 "http://www.w3.org/TR/2001/REC-SVG-20010904/DTD/svg10.dtd">
<svg version="1.0" xmlns="http://www.w3.org/2000/svg"
 width="821.000000pt" height="304.000000pt" viewBox="0 0 821.000000 304.000000"
 preserveAspectRatio="xMidYMid meet">

<g transform="translate(0.000000,304.000000) scale(0.100000,-0.100000)"
fill="currentColor" stroke="none">
<path d="M919 1981 c-55 -55 -47 -71 116 -233 99 -97 154 -144 172 -146 35 -5
103 61 103 99 0 27 -16 44 -226 242 -83 79 -116 87 -165 38z"/>
<path d="M777 1722 c-59 -59 -107 -112 -107 -117 0 -10 176 -187 212 -214 15
-11 31 0 133 95 l116 108 -118 118 c-65 65 -120 118 -123 118 -3 0 -54 -48
-113 -108z"/>
<path d="M6723 1771 c-303 -112 -324 -572 -33 -710 42 -20 74 -26 140 -29 108
-5 179 20 244 82 69 68 89 115 94 224 l4 92 -161 0 -161 0 0 -60 0 -60 85 0
c97 0 104 -9 63 -70 -49 -71 -152 -91 -238 -47 -93 46 -132 169 -98 304 20 83
110 153 195 153 51 0 116 -42 134 -87 8 -21 15 -23 95 -23 l86 0 -7 33 c-17
75 -78 147 -160 187 -70 33 -208 39 -282 11z"/>
<path d="M1911 1758 c-4 -13 -38 -102 -74 -198 -36 -96 -93 -247 -126 -334
-34 -87 -61 -163 -61 -167 0 -5 38 -9 84 -9 79 0 85 1 92 23 3 12 15 46 26 75
l19 52 140 0 c157 0 135 12 176 -95 l19 -50 87 -3 c48 -1 87 1 87 5 -1 4 -61
168 -134 363 l-132 355 -97 3 c-93 3 -98 2 -106 -20z m153 -287 l43 -131 -94
0 c-72 0 -93 3 -90 13 3 6 24 67 47 135 23 68 44 121 46 119 3 -2 24 -63 48
-136z"/>
<path d="M2322 1713 l3 -68 113 -3 113 -3 -2 -292 -2 -292 81 -3 82 -3 0 295
0 295 108 3 107 3 3 68 3 67 -306 0 -306 0 3 -67z"/>
<path d="M3020 1425 c-74 -196 -137 -361 -138 -366 -3 -6 30 -9 84 -7 l87 3
26 73 26 72 142 0 c79 0 143 -1 143 -2 0 -2 11 -34 24 -73 l23 -70 87 -3 c64
-2 86 0 86 10 0 10 -178 489 -249 668 l-17 45 -95 3 -94 3 -135 -356z m274 51
c25 -71 46 -130 46 -132 0 -2 -42 -4 -94 -4 l-94 0 47 134 c25 74 47 134 48
133 1 -2 22 -60 47 -131z"/>
<path d="M3710 1415 l0 -365 248 2 247 3 3 73 3 72 -166 0 -165 0 0 290 0 290
-85 0 -85 0 0 -365z"/>
<path d="M4698 1533 c2 -131 0 -257 -3 -281 -8 -56 -34 -82 -83 -82 -51 0 -73
18 -81 66 l-6 39 -78 3 -77 3 0 -33 c0 -54 19 -106 53 -145 46 -53 98 -73 187
-73 63 0 83 5 125 28 28 15 62 45 80 70 l30 44 3 299 3 299 -78 0 -78 0 3
-237z"/>
<path d="M4992 1493 c3 -264 4 -280 25 -319 29 -54 93 -109 151 -128 29 -10
81 -16 141 -16 82 0 104 4 151 26 66 31 95 56 123 109 21 38 22 56 25 323 l3
282 -75 0 -75 0 -3 -258 c-3 -282 -5 -290 -65 -329 -37 -25 -149 -25 -186 0
-60 39 -60 44 -58 328 l2 259 -81 0 -82 0 4 -277z"/>
<path d="M5750 1405 l0 -367 193 4 192 3 67 33 c132 65 192 169 192 332 0 162
-56 260 -182 322 l-67 33 -197 3 -198 4 0 -367z m350 215 c43 -12 93 -61 114
-112 20 -47 21 -164 2 -209 -34 -81 -89 -111 -213 -117 l-93 -4 0 226 0 226
78 0 c42 0 93 -5 112 -10z"/>
<path d="M7300 1405 l0 -365 241 0 242 0 -7 46 c-3 26 -6 57 -6 70 l0 24 -160
0 -160 0 0 75 0 74 143 3 142 3 3 68 3 67 -146 0 -145 0 0 80 0 80 163 2 162
3 3 68 3 67 -241 0 -240 0 0 -365z"/>
<path d="M506 1560 c-20 -22 -36 -48 -36 -57 0 -9 68 -85 152 -170 118 -119
158 -153 178 -153 34 0 100 66 100 100 0 18 -39 63 -148 172 -172 172 -183
177 -246 108z"/>
<path d="M1038 1453 l-47 -48 190 -202 c174 -185 194 -203 224 -203 25 0 40 8
65 36 57 65 52 74 -174 281 -110 101 -202 183 -206 183 -3 0 -27 -21 -52 -47z"/>
<path d="M535 1038 c-2 -7 -6 -29 -7 -48 -2 -29 -7 -36 -28 -39 -14 -1 -28 -8
-32 -15 -13 -19 -9 -93 6 -105 9 -8 100 -11 312 -9 l299 3 0 60 c0 58 -1 60
-27 63 -25 3 -28 7 -28 41 0 20 -5 42 -12 49 -18 18 -477 17 -483 0z"/>
</g>
</svg>
